<svg width="17" height="20" viewBox="0 0 17 20" fill="none" xmlns="http://www.w3.org/2000/svg">
<path fill-rule="evenodd" clip-rule="evenodd" d="M4.47115 0.00465702C4.46632 0.00904573 4.41838 0.0156594 4.36463 0.0193439C4.06421 0.0399709 3.70217 0.117202 3.41574 0.221786C3.38164 0.234228 3.33467 0.250823 3.31136 0.258641C3.23707 0.283575 2.92948 0.425535 2.80862 0.490662C2.58751 0.60982 2.3337 0.792748 2.11695 0.989159C2.00743 1.08839 1.87645 1.21662 1.82588 1.27409C1.6153 1.5134 1.43243 1.79104 1.29883 2.07431C1.28029 2.11361 1.25636 2.16413 1.24564 2.18658C1.2125 2.25598 1.17162 2.37576 1.11499 2.56932C1.08444 2.67377 1.07556 2.71573 1.03503 2.94696C1.01681 3.05089 1.01681 3.74118 1.03503 3.84511C1.07556 4.07634 1.08444 4.11829 1.11499 4.22275C1.16226 4.38432 1.18266 4.44705 1.19441 4.46694C1.20112 4.47828 1.22115 4.52788 1.23896 4.57717C1.28408 4.70221 1.40064 4.92896 1.50271 5.09028C1.58298 5.21715 1.77164 5.46598 1.82922 5.52093C1.8369 5.52826 1.866 5.55941 1.89387 5.59015C1.96929 5.67332 2.2706 5.94367 2.36737 6.01499C2.65673 6.22825 3.08714 6.46049 3.35077 6.54561C3.84473 6.70511 3.97804 6.73448 4.39653 6.77605C4.46164 6.78252 4.62903 6.78845 4.76851 6.78924L5.02213 6.79066L5.15002 7.13206C5.22036 7.31982 5.53572 8.16927 5.85082 9.01972C6.51538 10.8133 6.51843 10.8214 6.55724 10.8908C6.65858 11.0722 6.8425 11.2113 7.07052 11.2792C7.35543 11.3639 7.62299 11.3184 7.89397 11.1391C7.97033 11.0885 8.06116 10.9813 8.12405 10.8674C8.19489 10.7391 8.20705 10.6874 8.20654 10.517L8.20611 10.3721L7.62127 8.79007C7.2996 7.91998 6.96265 7.0106 6.87246 6.76922C6.78228 6.52784 6.7083 6.32263 6.70805 6.31321C6.7078 6.30378 6.72916 6.28271 6.75551 6.26637C6.94808 6.14696 7.00507 6.10992 7.07962 6.05574C7.12613 6.02194 7.16671 5.99176 7.16981 5.98866C7.17291 5.98558 7.20324 5.96245 7.2372 5.93726C7.31649 5.87849 7.51013 5.70322 7.57561 5.63099C7.60348 5.60024 7.63302 5.56868 7.64124 5.56085C7.70086 5.50416 7.89223 5.25858 7.98408 5.1209C8.04201 5.03407 8.20908 4.73499 8.23634 4.66933C8.29389 4.53071 8.36027 4.34546 8.38904 4.24316C8.43135 4.09276 8.43782 4.06282 8.47953 3.8247C8.49691 3.72552 8.49722 3.07602 8.47995 2.95716C8.46748 2.87139 8.46304 2.84802 8.44402 2.76834C8.43865 2.74589 8.42837 2.69996 8.42117 2.66628C8.41396 2.6326 8.40271 2.58438 8.39616 2.55912C8.38138 2.50207 8.27112 2.19837 8.24566 2.14459C8.23534 2.12277 8.21172 2.07278 8.19317 2.03349C8.14485 1.9311 8.06799 1.79048 8.01187 1.70178C7.93157 1.57488 7.74292 1.32608 7.68535 1.27114C7.67767 1.26381 7.64857 1.23266 7.6207 1.20192C7.59282 1.17119 7.48643 1.07015 7.38427 0.977381C7.18142 0.793218 6.92217 0.607187 6.70595 0.490662C6.58509 0.425535 6.2775 0.283575 6.20321 0.258641C6.1799 0.250823 6.13293 0.234228 6.09883 0.221766C6.00263 0.186625 5.88663 0.150383 5.80008 0.128439C5.65461 0.0915536 5.6425 0.0887571 5.58025 0.0778057C5.54615 0.0717942 5.49542 0.0626289 5.46751 0.0574237C5.40186 0.0451863 5.27388 0.0286623 5.14622 0.0159554C5.01655 0.00304442 4.48275 -0.00589632 4.47115 0.00465702ZM12.9475 10.03C12.9289 10.0349 12.8832 10.0447 12.846 10.0518C12.8088 10.059 12.753 10.0737 12.722 10.0844C12.691 10.0952 12.549 10.1406 12.4063 10.1853C12.2637 10.23 12.0164 10.3076 11.8568 10.3576C11.6971 10.4077 11.4358 10.4895 11.2762 10.5396C11.1165 10.5896 10.8667 10.6681 10.721 10.714C10.4608 10.7958 10.1709 10.8868 9.58797 11.0695C9.42676 11.12 9.17564 11.1988 9.02993 11.2447C8.77442 11.3251 8.5174 11.4057 7.88849 11.6028C7.33824 11.7752 7.01864 11.8754 6.75269 11.9591C6.60698 12.005 6.35587 12.0838 6.19465 12.1344C5.61177 12.317 5.32178 12.408 5.06167 12.4899C4.91596 12.5357 4.66484 12.6146 4.50363 12.6651C3.92075 12.8477 3.63076 12.9387 3.37065 13.0206C2.7909 13.2031 1.97906 13.4573 1.72121 13.5371C1.49084 13.6084 1.39072 13.6499 1.26653 13.7258C1.08673 13.8357 0.934154 14.0195 0.866084 14.2084C0.817315 14.3438 0.811566 14.3777 0.811566 14.5303C0.811566 14.6563 0.816087 14.6977 0.838543 14.7779C0.868317 14.8841 0.954412 15.0495 1.02121 15.1288C1.11737 15.2429 1.28181 15.3657 1.42845 15.433C1.51133 15.471 1.56583 15.4861 1.74734 15.5213C1.81214 15.5339 1.98415 15.5299 2.09674 15.5132C2.16359 15.5032 2.61147 15.3665 3.70885 15.021C3.85456 14.9752 4.11836 14.8925 4.29507 14.8373C4.47178 14.7821 4.73558 14.6995 4.88129 14.6536C5.1466 14.5701 5.46314 14.4708 6.0171 14.2972C6.17986 14.2463 6.44492 14.1632 6.60614 14.1127C6.76735 14.0621 7.03242 13.9791 7.19518 13.9281C7.35794 13.8771 7.62173 13.7944 7.7814 13.7444C7.94106 13.6943 8.20359 13.6121 8.3648 13.5615C8.52601 13.511 8.78981 13.4283 8.95102 13.3778C9.11223 13.3273 9.37603 13.2446 9.53724 13.1941C9.69845 13.1436 9.96225 13.0609 10.1235 13.0104C10.2847 12.9599 10.5485 12.8772 10.7097 12.8267C11.4321 12.6003 11.5995 12.5478 11.8483 12.4695C11.994 12.4236 12.2451 12.3447 12.4063 12.2942C13.0181 12.1025 13.2781 12.0209 13.3907 11.9853C13.6281 11.9103 13.759 11.8409 13.8939 11.7188C14.0992 11.5329 14.2187 11.2759 14.2187 11.0202C14.2187 10.8243 14.1345 10.5819 14.019 10.4448C13.9668 10.383 13.826 10.2554 13.7576 10.2082C13.6523 10.1354 13.457 10.0586 13.3251 10.0382C13.239 10.0248 12.9884 10.0194 12.9475 10.03ZM14.1706 12.3156C14.1551 12.3203 13.8305 12.4168 13.4491 12.5302C12.8006 12.7231 12.236 12.8918 8.93975 13.8779C8.2298 14.0903 7.08075 14.434 6.3863 14.6417C0.219707 16.486 0.65766 16.3532 0.544249 16.4132C0.441649 16.4676 0.284891 16.5964 0.208604 16.6891C0.131741 16.7824 0.0625669 16.923 0.0158834 17.0807C-0.00342803 17.1459 -0.00571655 17.3768 0.0122534 17.4474C0.0364012 17.5423 0.0721607 17.6398 0.105012 17.7002C0.175471 17.8298 0.290979 17.9624 0.397649 18.036C0.420692 18.0519 0.43953 18.0724 0.439507 18.0816C0.439496 18.0907 0.413837 18.1327 0.382486 18.1748C0.286492 18.3037 0.223304 18.4268 0.178199 18.5728C0.166114 18.612 0.144762 18.7814 0.144762 18.8382C0.144762 18.9561 0.189281 19.1854 0.223349 19.2431C0.230035 19.2544 0.242751 19.2827 0.251612 19.306C0.285399 19.3948 0.435753 19.5928 0.53505 19.6793C0.606828 19.7419 0.753609 19.8325 0.851023 19.8745C1.02852 19.9508 1.05363 19.9586 1.22868 19.9912C1.31201 20.0067 15.8705 20 15.9631 19.9844C16.045 19.9707 16.217 19.9178 16.2921 19.8834C16.5304 19.7742 16.7884 19.5341 16.8834 19.333C16.9406 19.2122 16.9546 19.1769 16.9668 19.124C16.9739 19.0931 16.9843 19.0512 16.99 19.0309C17.0044 18.9792 17.0029 18.6954 16.9878 18.6368C16.9555 18.5104 16.8923 18.3536 16.8439 18.279C16.6538 17.9867 16.3923 17.8048 16.0308 17.7137C15.9258 17.6872 15.7346 17.6827 14.4017 17.6752C13.6267 17.6709 12.9897 17.6659 12.9897 17.6659C12.9897 17.6659 12.9869 17.6599 12.9869 17.6543C12.9869 17.648 13.0461 17.6441 13.142 17.6441C13.2296 17.6441 13.3143 17.6389 13.3365 17.6322C13.3581 17.6257 13.4646 17.6163 13.5731 17.6114C13.8866 17.5972 14.1388 17.5845 14.3454 17.5726C14.4508 17.5665 14.6233 17.5573 14.7287 17.5522C15.3835 17.5203 15.4144 17.517 15.6003 17.4616C15.7822 17.4073 15.9759 17.2792 16.0935 17.1353C16.1795 17.03 16.2699 16.8666 16.2891 16.7816C16.2967 16.7479 16.3076 16.7038 16.3134 16.6835C16.3192 16.6632 16.3239 16.5914 16.3239 16.524C16.3239 16.3971 16.293 16.2486 16.2516 16.1761C16.2418 16.1588 16.2337 16.1391 16.2337 16.1321C16.2337 16.1012 16.0734 15.8855 16.003 15.8218C15.9328 15.7583 15.6945 15.613 15.6604 15.613C15.6528 15.613 15.6278 15.6046 15.6047 15.5943C15.5817 15.584 15.5325 15.5699 15.4953 15.5629C15.4581 15.5558 15.407 15.5455 15.3819 15.5399C15.3248 15.5273 15.1189 15.5341 14.413 15.5721C14.3014 15.5782 14.1289 15.5873 14.0297 15.5926C13.9305 15.5978 13.758 15.607 13.6464 15.613C13.5348 15.619 13.3623 15.6282 13.2631 15.6334C13.1639 15.6386 12.9914 15.6478 12.8798 15.6538C12.5171 15.6733 12.3201 15.6836 12.102 15.6946C11.8839 15.7057 11.6868 15.716 11.3241 15.7355C11.2125 15.7415 11.04 15.7507 10.9408 15.7559C10.8416 15.7611 10.6691 15.7703 10.5575 15.7762C10.4459 15.7822 10.2709 15.7913 10.1686 15.7966C10.0662 15.8018 9.95718 15.8085 9.92618 15.8114C9.89517 15.8143 9.79498 15.818 9.70352 15.8196C9.51319 15.8229 9.49021 15.812 9.61334 15.7766C9.65518 15.7646 9.7148 15.7463 9.7458 15.7358C9.7768 15.7254 10.2816 15.5737 10.8675 15.3987C11.4535 15.2238 12.5163 14.9061 13.2293 14.6929C13.9424 14.4796 14.5587 14.2961 14.599 14.2851C14.7754 14.2366 14.9855 14.1416 15.0998 14.0585C15.2824 13.9257 15.3996 13.7583 15.469 13.5309C15.4819 13.4887 15.5029 13.3369 15.5029 13.286C15.5029 13.2343 15.4818 13.0828 15.4688 13.041C15.4451 12.9648 15.435 12.9415 15.3938 12.8675C15.2721 12.6487 15.1039 12.4927 14.897 12.4068C14.7395 12.3414 14.7184 12.3338 14.6667 12.3237C14.6014 12.3109 14.2077 12.3045 14.1706 12.3156Z" fill="white"/>
</svg>
