<svg width="542" height="732" viewBox="0 0 542 732" fill="none" xmlns="http://www.w3.org/2000/svg">
<g style="mix-blend-mode:overlay">
<path fill-rule="evenodd" clip-rule="evenodd" d="M142.307 818L184.897 818L1.61643e-05 633.102L1.24406e-05 675.696L142.307 818ZM3.45107e-06 778.524L39.4749 818L0 818L3.45107e-06 778.524ZM2.51537e-05 530.275L287.729 818L330.319 818L2.88774e-05 487.681L2.51537e-05 530.275ZM3.78669e-05 384.853L433.151 818L475.742 818L4.15906e-05 342.258L3.78669e-05 384.853ZM5.05802e-05 239.43L578.573 818L621.165 818L5.43039e-05 196.836L5.05802e-05 239.43ZM6.32934e-05 94.0082L723.994 818L766.587 818L6.70171e-05 51.4139L6.32934e-05 94.0082ZM51.4177 -6.70168e-05L818 766.585L818 723.991L94.0083 -6.32934e-05L51.4177 -6.70168e-05ZM196.84 -5.43035e-05L818 621.163L818 578.57L239.43 -5.05802e-05L196.84 -5.43035e-05ZM342.262 -4.15903e-05L818 475.742L818 433.147L384.853 -3.78669e-05L342.262 -4.15903e-05ZM487.684 -2.88771e-05L818 330.319L818 287.725L530.275 -2.51537e-05L487.684 -2.88771e-05ZM633.105 -1.6164e-05L818 184.897L818 142.303L675.699 -1.24404e-05L633.105 -1.6164e-05ZM778.527 -3.45081e-06L818 39.4749L818 0L778.527 -3.45081e-06Z" fill="url(#paint0_linear_0_8)" fill-opacity="0.1"/>
</g>
<defs>
<linearGradient id="paint0_linear_0_8" x1="0.000127935" y1="388.433" x2="379.085" y2="388.433" gradientUnits="userSpaceOnUse">
<stop stop-color="white" stop-opacity="0"/>
<stop offset="1" stop-color="white"/>
</linearGradient>
</defs>
</svg>
