<svg width="20" height="20" viewBox="0 0 20 20" fill="none" xmlns="http://www.w3.org/2000/svg">
<path fill-rule="evenodd" clip-rule="evenodd" d="M8.85213 0.0586659C8.65097 0.159264 8.53719 0.303006 8.49869 0.50516C8.47316 0.639264 8.4765 4.18746 8.50229 4.31164C8.53612 4.47454 8.65891 4.64397 8.79293 4.71266C8.92806 4.78192 8.98228 4.79279 9.27252 4.80886C9.62752 4.82849 10.0377 4.87312 10.2404 4.91415C10.4223 4.95096 10.9491 5.08851 11.037 5.12215C11.0935 5.14379 11.1882 5.1787 11.2474 5.19974C11.3594 5.23956 11.5205 5.30839 11.7837 5.42887C12.0917 5.56984 12.7675 6.00368 12.9505 6.17786C12.9655 6.19213 13.026 6.24335 13.0849 6.29167C13.223 6.405 13.5976 6.77953 13.711 6.91759C13.7593 6.97649 13.8105 7.03693 13.8248 7.05193C13.999 7.2349 14.433 7.91062 14.574 8.21848C14.6945 8.48164 14.7633 8.64271 14.8031 8.75474C14.8242 8.81388 14.8591 8.90853 14.8807 8.9651C14.9144 9.053 15.052 9.57962 15.0888 9.7615C15.1298 9.96418 15.1745 10.3742 15.1941 10.7292C15.2102 11.0193 15.221 11.0736 15.2903 11.2087C15.359 11.3426 15.5285 11.4654 15.6914 11.4992C15.8156 11.525 19.3646 11.5284 19.4987 11.5028C19.7413 11.4567 19.9191 11.2881 19.9859 11.0412C20.0208 10.9119 19.9868 10.0435 19.9295 9.60511C19.8847 9.2616 19.8427 8.98127 19.824 8.90136C19.819 8.87985 19.8045 8.80948 19.7919 8.74497C19.7792 8.68045 19.7526 8.5573 19.7328 8.47128C19.713 8.38527 19.6923 8.2929 19.6869 8.26602C19.6446 8.05702 19.382 7.21324 19.2973 7.01429C19.2814 6.97699 19.2489 6.8981 19.225 6.83896C19.0882 6.5002 18.7738 5.83851 18.6398 5.60739C18.5992 5.5375 18.5277 5.41434 18.4808 5.33371C18.227 4.8973 17.5769 3.99532 17.3678 3.78935C17.3405 3.76247 17.2787 3.69231 17.2304 3.63343C17.1167 3.49479 16.5084 2.88671 16.3698 2.77301C16.3109 2.72473 16.2407 2.66289 16.2138 2.63562C16.0099 2.42866 15.1027 1.77442 14.6789 1.52875C14.6036 1.48512 14.4805 1.41359 14.4052 1.36984C14.1672 1.23149 13.5098 0.918577 13.1636 0.778784C13.1044 0.754915 13.0255 0.722386 12.9882 0.706512C12.7892 0.621827 11.9452 0.359267 11.7362 0.317022C11.7093 0.311588 11.6169 0.290925 11.5309 0.271102C11.4449 0.25128 11.3217 0.224694 11.2571 0.212045C11.1926 0.199417 11.1222 0.184951 11.1007 0.179927C11.0205 0.161219 10.7371 0.118759 10.3968 0.0744808C10.1348 0.0403878 9.7318 0.0147007 9.34096 0.00715485L8.96945 0L8.85213 0.0586659ZM6.80885 2.07917C6.63141 2.12509 6.42463 2.18479 6.34936 2.21186C6.27408 2.23894 6.1069 2.29727 5.97785 2.34149C5.8488 2.38571 5.66402 2.45783 5.56724 2.50173C5.29821 2.62378 4.66602 2.93884 4.5016 3.03284C4.17037 3.22216 3.44144 3.7406 3.2104 3.95116C3.17237 3.98582 3.0934 4.05375 3.03488 4.10213C2.91461 4.2016 2.44823 4.66369 2.36366 4.76722C2.3331 4.80462 2.25636 4.89245 2.1931 4.9624C1.91619 5.26863 1.54099 5.7904 1.25086 6.27267C1.10727 6.5114 0.813719 7.09229 0.727647 7.30813C0.704047 7.36727 0.663396 7.46257 0.637293 7.51992C0.577911 7.65039 0.310583 8.45353 0.27834 8.59835C0.265181 8.65749 0.23855 8.77624 0.219192 8.86226C0.199815 8.94827 0.173614 9.07143 0.160964 9.13594C0.148332 9.20045 0.133726 9.27083 0.128544 9.29233C0.123363 9.31384 0.110282 9.39741 0.0995085 9.47804C0.0887153 9.55868 0.0713716 9.68184 0.0609695 9.75173C0.0288831 9.96727 -0.000348807 10.5623 3.14599e-06 10.9931C0.000433311 11.5002 0.0351204 11.9669 0.101757 12.3615C0.114466 12.4368 0.131575 12.5423 0.139788 12.5961C0.16069 12.7331 0.24158 13.0765 0.314689 13.3389C0.364001 13.5159 0.577696 14.1577 0.62079 14.2583C0.790099 14.6536 1.0168 15.1299 1.1205 15.3085C1.16266 15.381 1.23417 15.5042 1.27939 15.5821C1.48161 15.9306 2.02839 16.688 2.19324 16.8479C2.22094 16.8748 2.28312 16.945 2.33142 17.0039C2.44475 17.1421 2.85823 17.5555 2.99647 17.6688C3.05537 17.7171 3.12556 17.7792 3.15245 17.8069C3.31137 17.9707 4.07101 18.5192 4.41361 18.7176C4.48889 18.7612 4.61208 18.8327 4.68735 18.8765C4.87006 18.9827 5.34226 19.2076 5.74261 19.379C5.84325 19.4221 6.48523 19.6358 6.6622 19.6851C6.92464 19.7582 7.26821 19.839 7.40521 19.8599C7.45898 19.8682 7.56457 19.8853 7.63985 19.898C8.34033 20.0162 9.47941 20.0342 10.2306 19.9388C10.5042 19.9041 10.6704 19.8806 10.7097 19.8712C10.7312 19.866 10.8016 19.8514 10.8661 19.8388C10.9306 19.8261 11.0538 19.7999 11.1398 19.7806C11.2259 19.7612 11.3446 19.7346 11.4038 19.7214C11.5486 19.6892 12.352 19.4219 12.4825 19.3625C12.5398 19.3364 12.6351 19.2958 12.6943 19.2722C13.084 19.1168 13.7229 18.7696 14.1803 18.4645C14.4 18.3179 14.9598 17.8901 15.0406 17.8069C15.0675 17.7792 15.1377 17.7171 15.1966 17.6688C15.3326 17.5573 15.7853 17.1053 15.901 16.9655C15.9494 16.907 16.0173 16.828 16.052 16.79C16.2812 16.5386 16.8008 15.8018 16.9899 15.46C17.2557 14.9797 17.5492 14.3521 17.662 14.0231C17.7062 13.8941 17.7645 13.727 17.7915 13.6517C17.8338 13.5339 18.0127 12.8603 18.0127 12.8187C18.0127 12.8107 17.9989 12.7903 17.982 12.7734C17.9547 12.7462 17.8197 12.7427 16.7911 12.7427H15.6309L15.3895 12.6813C14.9499 12.5696 14.6315 12.3637 14.3582 12.0145C14.2035 11.8168 14.1892 11.8261 14.1117 12.1757C14.0832 12.3043 13.9731 12.6447 13.8791 12.8948C13.8618 12.9409 13.8073 13.0596 13.7581 13.1587C13.3914 13.8961 12.8444 14.5559 12.1957 15.0431C11.9141 15.2545 11.3855 15.5655 11.175 15.6434C11.1341 15.6585 11.0523 15.6903 10.9932 15.7139C10.934 15.7376 10.8416 15.7735 10.7879 15.7938C10.661 15.8416 10.1761 15.9659 10.0253 15.9893C9.96079 15.9992 9.842 16.0178 9.76134 16.0304C9.5683 16.0607 8.62479 16.0607 8.43174 16.0304C8.35109 16.0178 8.2323 15.9992 8.16778 15.9892C7.99483 15.9624 7.57278 15.8463 7.327 15.7579C7.0954 15.6746 6.65248 15.4664 6.52533 15.381C6.48232 15.3521 6.40803 15.3086 6.36025 15.2844C6.17948 15.1926 5.72849 14.8291 5.45008 14.5508C4.77984 13.8807 4.34248 13.1222 4.09742 12.2051C4.06008 12.0653 4.02134 11.8982 4.01133 11.8337C4.00134 11.7692 3.98278 11.6504 3.97011 11.5698C3.94076 11.3828 3.94037 10.4436 3.96957 10.2209C3.99643 10.0161 3.99766 10.0101 4.09402 9.61999C4.16832 9.31909 4.191 9.24729 4.28857 9.00399C4.31119 8.94755 4.34211 8.86795 4.35722 8.82711C4.4352 8.61665 4.74617 8.08817 4.95771 7.80662C5.44497 7.15809 6.10492 6.61114 6.84244 6.24458C6.94156 6.19532 7.06034 6.14085 7.10641 6.12355C7.35653 6.0296 7.69704 5.91952 7.8257 5.891C8.17533 5.81351 8.18465 5.79924 7.98691 5.64455C7.63762 5.37132 7.43173 5.053 7.31994 4.61345L7.25857 4.37214V3.21223C7.25857 2.18381 7.25509 2.04883 7.22785 2.02158C7.18769 1.98144 7.18524 1.98178 6.80885 2.07917ZM8.6566 6.97525C8.63509 6.98479 8.58023 6.99322 8.53467 6.99398C8.42529 6.9958 8.19599 7.05022 7.86471 7.15299C7.50894 7.26334 7.11581 7.46698 6.74493 7.733C6.53313 7.88494 6.14735 8.27058 5.9608 8.51687C5.74353 8.80371 5.56235 9.10437 5.49147 9.29577C5.47626 9.33688 5.44435 9.41891 5.42059 9.47804C5.33984 9.67903 5.31839 9.7418 5.28032 9.88857C5.25941 9.96921 5.23402 10.088 5.22387 10.1525C5.21372 10.217 5.19514 10.3357 5.18259 10.4164C5.13762 10.7051 5.15514 11.2319 5.22387 11.6577C5.28149 12.0147 5.50633 12.5829 5.74992 12.987C6.03225 13.4555 6.54561 13.9687 7.01416 14.251C7.19791 14.3617 7.60626 14.561 7.73091 14.6008C7.79311 14.6207 7.86336 14.6473 7.88704 14.66C7.91072 14.6726 7.99677 14.7 8.07827 14.7207C8.7065 14.8809 9.49498 14.8808 10.1133 14.7205C10.2601 14.6825 10.3229 14.661 10.5239 14.5803C10.5831 14.5565 10.6651 14.5246 10.7062 14.5094C11.0421 14.3851 11.5482 14.0275 11.9215 13.6506C12.2725 13.2963 12.6033 12.8042 12.7448 12.426C12.9868 11.7793 13.0336 11.5328 13.0336 10.9051C13.0336 10.3339 13.0041 10.1427 12.8382 9.63872C12.7539 9.38272 12.6205 9.09164 12.4823 8.86226C12.1916 8.37991 11.6223 7.81069 11.1398 7.52012C10.6996 7.25496 10.1268 7.05234 9.62447 6.98407C9.47613 6.9639 8.69817 6.95682 8.6566 6.97525ZM9.28066 8.66702C9.4833 8.72849 9.62604 8.85938 9.72281 9.07249C9.79771 9.2375 9.75863 9.5633 9.64772 9.6982C9.48389 9.89748 9.34901 9.96629 9.12173 9.96657C8.78139 9.96698 8.55737 9.80248 8.45957 9.48037C8.38834 9.24571 8.45603 9.01237 8.64644 8.83624C8.83362 8.6631 9.06456 8.60148 9.28066 8.66702ZM7.72017 10.2712C7.82658 10.3022 7.90606 10.3558 8.00733 10.465C8.08222 10.5458 8.12828 10.6386 8.16512 10.7829C8.19365 10.8947 8.19365 10.9155 8.16512 11.0273C8.14797 11.0945 8.11827 11.1803 8.09909 11.2179C8.04776 11.3187 7.90919 11.4469 7.78663 11.5071C7.69524 11.552 7.65381 11.56 7.51276 11.56C7.3717 11.56 7.33027 11.552 7.23888 11.5071C7.11632 11.4469 6.97775 11.3187 6.92642 11.2179C6.90724 11.1803 6.87754 11.0945 6.86039 11.0273C6.83186 10.9155 6.83186 10.8947 6.86039 10.7829C6.90873 10.5935 6.96555 10.5031 7.1261 10.3602C7.24717 10.2525 7.51672 10.2121 7.72017 10.2712ZM10.934 10.281C11.1797 10.3924 11.3647 10.6508 11.3647 10.8827C11.3647 11.1586 11.142 11.4651 10.8878 11.539C10.5528 11.6363 10.1931 11.4628 10.0748 11.1467C10.0466 11.0713 10.0351 10.9939 10.0353 10.8799C10.0355 10.6564 10.0948 10.5372 10.2937 10.3602C10.423 10.2452 10.7624 10.2031 10.934 10.281ZM9.21717 11.8359C9.41326 11.8859 9.51605 11.9519 9.64772 12.112C9.71196 12.1901 9.76134 12.3538 9.76134 12.4886C9.76134 12.6233 9.71196 12.787 9.64772 12.8651C9.51637 13.0249 9.41319 13.0912 9.21875 13.1408C9.10691 13.1693 9.08618 13.1693 8.97434 13.1408C8.90714 13.1236 8.82134 13.0939 8.7837 13.0748C8.6829 13.0234 8.5546 12.8849 8.49441 12.7624C8.44952 12.671 8.44152 12.6296 8.44152 12.4886C8.44152 12.3475 8.44952 12.3061 8.49441 12.2147C8.5519 12.0977 8.68085 11.9554 8.77392 11.9063C8.82114 11.8814 9.02222 11.8159 9.0803 11.8065C9.08749 11.8053 9.14908 11.8186 9.21717 11.8359Z" fill="white"/>
</svg>
