<svg width="28" height="30" viewBox="0 0 28 30" fill="none" xmlns="http://www.w3.org/2000/svg">
<path opacity="0.5" d="M16.6266 30H11.3742C11.0451 30.0001 10.7259 29.8832 10.4695 29.6687C10.2131 29.4543 10.0349 29.1552 9.96446 28.821L9.37717 25.995C8.59372 25.6382 7.85084 25.1919 7.16221 24.6645L4.51147 25.542C4.19772 25.646 3.85918 25.6353 3.55207 25.5117C3.24497 25.3881 2.98777 25.159 2.8232 24.8625L0.191224 20.136C0.028378 19.8392 -0.0327503 19.4937 0.01784 19.1561C0.0684304 18.8185 0.227744 18.5087 0.469717 18.2775L2.52595 16.3275C2.43244 15.4442 2.43244 14.5528 2.52595 13.6695L0.469717 11.724C0.227401 11.4927 0.067871 11.1826 0.0172724 10.8447C-0.0333262 10.5067 0.0280086 10.161 0.191224 9.864L2.81743 5.1345C2.982 4.83797 3.2392 4.60889 3.5463 4.48528C3.85341 4.36168 4.19195 4.35099 4.5057 4.455L7.15644 5.3325C7.50852 5.0625 7.87504 4.8105 8.25309 4.5825C8.61817 4.3695 8.99334 4.176 9.37717 4.0035L9.9659 1.1805C10.036 0.846296 10.2138 0.547032 10.47 0.332323C10.7261 0.117615 11.0452 0.000359949 11.3742 0H16.6266C16.9557 0.000359949 17.2747 0.117615 17.5309 0.332323C17.787 0.547032 17.9649 0.846296 18.035 1.1805L18.6295 4.005C19.4119 4.3639 20.1546 4.81001 20.8444 5.3355L23.4966 4.458C23.8102 4.35437 24.1484 4.36526 24.4552 4.48884C24.762 4.61243 25.0189 4.84129 25.1835 5.1375L27.8097 9.867C28.1444 10.4775 28.029 11.25 27.5312 11.7255L25.4749 13.6755C25.5684 14.5588 25.5684 15.4502 25.4749 16.3335L27.5312 18.2835C28.029 18.7605 28.1444 19.5315 27.8097 20.142L25.1835 24.8715C25.0189 25.168 24.7617 25.3971 24.4546 25.5207C24.1475 25.6443 23.8089 25.655 23.4952 25.551L20.8444 24.6735C20.1563 25.2005 19.4139 25.6463 18.6309 26.0025L18.035 28.821C17.9646 29.1549 17.7866 29.4538 17.5305 29.6683C17.2744 29.8827 16.9555 29.9997 16.6266 30ZM13.9947 9C12.4639 9 10.9958 9.63214 9.91334 10.7574C8.8309 11.8826 8.22279 13.4087 8.22279 15C8.22279 16.5913 8.8309 18.1174 9.91334 19.2426C10.9958 20.3679 12.4639 21 13.9947 21C15.5255 21 16.9936 20.3679 18.076 19.2426C19.1584 18.1174 19.7666 16.5913 19.7666 15C19.7666 13.4087 19.1584 11.8826 18.076 10.7574C16.9936 9.63214 15.5255 9 13.9947 9Z" fill="white"/>
</svg>
